<svg id="Layer_1" data-name="Layer 1" xmlns="http://www.w3.org/2000/svg" viewBox="0 0 427.26 53.7"><defs><style>.cls-1,.cls-4,.cls-6,.cls-7{fill:none;stroke:#231f20;}.cls-1{stroke-width:0.54px;}.cls-2{fill:#bc262b;}.cls-3{fill:#fff;}.cls-4{stroke-width:0.46px;}.cls-5{fill:#231f20;}.cls-6{stroke-width:0.09px;}.cls-7{stroke-width:0.1px;}</style></defs><title>HMS_DBMI_Logo</title><line class="cls-1" x1="224.41" y1="52.23" x2="224.41" y2="0.86"/><path d="M125.9,9.07a3.17,3.17,0,0,0-2.31-2V6.52c.73,0,3.15.09,3.7.09s2.71-.09,3.45-.09v.56c-.66.13-1.42.5-1.42,1.18a7.73,7.73,0,0,0,.85,2.4l5.32,12.06,5-12.08a7,7,0,0,0,.68-2.31c0-.64-.59-1.07-1.42-1.25V6.52c.66,0,2.28.09,2.79.09s2.38-.09,3.11-.09V7.1A3.85,3.85,0,0,0,143,9.76l-7.38,17.41H134L125.9,9.07Z"/><path d="M54.23,26.5c1-.22,1.64-.65,1.64-1.75v-16c0-1-.63-1.48-1.64-1.75V6.47c.51,0,2.69.09,3.21.09s2.93-.09,3.44-.09V7c-1,.22-1.69.66-1.69,1.75v6.67h11.9V8.79c0-1.09-.63-1.53-1.64-1.75V6.47c.5,0,2.78.09,3.39.09s2.75-.09,3.25-.09V7c-1,.22-1.68.66-1.68,1.75v16c0,1.05.67,1.49,1.68,1.75V27l-3.25,0-3.39,0V26.5c1-.22,1.64-.65,1.64-1.75V17.21H59.19v7.54c0,1.1.68,1.49,1.69,1.75V27l-3.44,0-3.21,0V26.5Zm25.13,0a3.48,3.48,0,0,0,2.49-2.27L88.42,8.4a17.47,17.47,0,0,0,.61-2h1.84a17.26,17.26,0,0,0,.6,2l7,15.86a3.36,3.36,0,0,0,2.42,2.23V27l-3.62,0-3.52,0V26.5c1-.25,1.33-.76,1.33-1.26a3.88,3.88,0,0,0-.38-1.4l-1.47-3.36H85.46l-1.34,3.38a4.1,4.1,0,0,0-.34,1.31c0,.57.3,1,1.45,1.33V27l-2.9,0-3,0V26.5Zm13.09-7.68L89.18,11.2l-3.05,7.62ZM79.36,26.5a3.48,3.48,0,0,0,2.49-2.27L88.42,8.4a17.47,17.47,0,0,0,.61-2h1.84a17.26,17.26,0,0,0,.6,2l7,15.86a3.36,3.36,0,0,0,2.42,2.23V27l-3.62,0-3.52,0V26.5c1-.25,1.33-.76,1.33-1.26a3.88,3.88,0,0,0-.38-1.4l-1.47-3.36H85.46l-1.34,3.38a4.1,4.1,0,0,0-.34,1.31c0,.57.3,1,1.45,1.33V27l-2.9,0-3,0V26.5Zm13.09-7.68L89.18,11.2l-3.05,7.62Zm52.08,7.68A3.43,3.43,0,0,0,147,24.23L153.59,8.4a17.47,17.47,0,0,0,.61-2H156a19.64,19.64,0,0,0,.6,2l7,15.86A3.38,3.38,0,0,0,166,26.5V27l-3.62,0-3.52,0V26.5c1-.25,1.33-.76,1.33-1.26a3.91,3.91,0,0,0-.39-1.4l-1.47-3.36h-7.71l-1.34,3.38a4.1,4.1,0,0,0-.34,1.31c0,.57.3,1,1.45,1.33V27l-2.83,0-3,0V26.5Zm13.09-7.68-3.27-7.62-3,7.62Zm34.43,7.68c1.24-.22,1.91-.71,1.91-1.83V8.79c0-1.09-.67-1.53-1.86-1.75V6.47c.69,0,3,.09,3.57.09,1,0,3.85-.21,6-.21,7.32,0,11.76,4.07,11.76,10.29,0,6-4.62,10.52-12.17,10.52-2.17,0-4.81-.17-5.82-.17-.61,0-2.72.08-3.41.08V26.5Zm5.24-1.05a22.35,22.35,0,0,0,3.21.22c6.14,0,9.34-3.69,9.34-8.86,0-5.35-3.37-9.11-9.12-9.11a25.31,25.31,0,0,0-3.43.22V25.45Z"/><path d="M109.07,24.61c0,1.06.67,1.63,1.9,1.89v.57c-.68,0-2.92-.09-3.56-.09s-2.75.09-3.43.09V26.5c1.14-.22,1.82-.79,1.82-1.89V8.84c0-1-.52-1.58-1.82-1.8V6.47c.69,0,2.86.09,3.47.09,1,0,3.86-.16,5-.16,4.92,0,7.66,2,7.66,5.51,0,2.74-2,4.59-5.18,5.35a6.37,6.37,0,0,1,1.42,1.25c.87,1,3.27,4.45,4.24,5.63s2.22,2.51,3.54,2.58v.43a13,13,0,0,1-2.43.25,5.19,5.19,0,0,1-4.31-2.15c-1.12-1.36-3.07-4.26-4.19-5.69A4.67,4.67,0,0,0,110,17.68c-.31-.05-.6-.1-1-.14v7.07Zm0-8.37a22.93,22.93,0,0,0,2.57.13c3.85,0,5-2.22,5-4.17,0-2.79-1.85-4.5-5.22-4.5a15.09,15.09,0,0,0-2.4.22v8.32Z"/><path d="M173.92,24.61c0,1.06.67,1.63,1.9,1.89v.57c-.68,0-2.92-.09-3.56-.09s-2.75.09-3.43.09V26.5c1.14-.22,1.82-.79,1.82-1.89V8.84c0-1-.53-1.58-1.82-1.8V6.47c.69,0,2.85.09,3.47.09,1,0,3.86-.16,5-.16,4.92,0,7.66,2,7.66,5.51,0,2.74-2.05,4.59-5.18,5.35a6.37,6.37,0,0,1,1.42,1.25c.88,1,3.27,4.45,4.24,5.63s2.21,2.51,3.54,2.58v.43a13.05,13.05,0,0,1-2.43.25,5.18,5.18,0,0,1-4.31-2.15c-1.12-1.36-3.07-4.26-4.19-5.69a4.67,4.67,0,0,0-3.16-1.88c-.32-.05-.6-.1-1-.14v7.07Zm0-8.37a23.07,23.07,0,0,0,2.57.13c3.84,0,5-2.22,5-4.17,0-2.79-1.85-4.5-5.22-4.5a15.09,15.09,0,0,0-2.4.22v8.32Z"/><path class="cls-2" d="M54.23,47.22l1.34,0,1.44,0v-.41c-.69-.15-.9-.53-.87-.81l.58-6.41,3.69,7.59h.73l3.15-7.38.46,6.2a.88.88,0,0,1-.7.81v.41l1.54,0,1.6,0v-.41a.93.93,0,0,1-.71-.83l-.56-7.89A.93.93,0,0,1,66.55,37v-.41c-.42,0-.79,0-1.06,0s-.57,0-.95,0l-3.44,8-3.89-8c-.36,0-.74,0-1,0s-.65,0-1.06,0V37a.9.9,0,0,1,.64,1L55.11,46a1.19,1.19,0,0,1-.88.84v.41Zm16.67,0,1.66,0h3.12a22.09,22.09,0,0,1,2.6.1l.26-1.87-.43-.1a1.79,1.79,0,0,1-1.8,1H73.45V42.1H76a1,1,0,0,1,.91.61h.41c0-.33,0-.87,0-1.05a10.15,10.15,0,0,1,0-1H76.9a1,1,0,0,1-.91.6H73.45V37.54h2.89a1.43,1.43,0,0,1,1.51,1h.41l0-2.06H77.9a1.37,1.37,0,0,1-.61.13H70.9V37a.89.89,0,0,1,.79.81v8.08a.9.9,0,0,1-.79.88v.41Zm11,0,1.66,0c.48,0,1.91.1,2.94.1,3.29,0,5.56-2.15,5.56-5.18a5.35,5.35,0,0,0-5.56-5.53c-1,0-2.46.1-2.94.1l-1.66,0V37a.9.9,0,0,1,.79.82v8.07a.9.9,0,0,1-.79.88v.41Zm2.55-9.78a9.37,9.37,0,0,1,1.51-.1A4.43,4.43,0,0,1,90.18,42a4.13,4.13,0,0,1-4.29,4.37,8.5,8.5,0,0,1-1.43-.1V37.44Zm11.11,9.78,1.77,0,1.71,0v-.41c-.62-.17-.87-.42-.87-.83V37.86c0-.41.25-.65.87-.82v-.41l-1.71,0-1.77,0V37c.62.13.85.41.85.82V46c0,.41-.23.69-.85.83v.41Zm16-2.26c-.64,1.25-1.94,1.53-3.29,1.53-2.46,0-3.78-2.48-3.78-4.57,0-2.54,1.38-4.56,3.78-4.56a3.24,3.24,0,0,1,3.12,1.52h.41L111.7,37a3.64,3.64,0,0,1-.85-.11,12.39,12.39,0,0,0-2.58-.41,5.33,5.33,0,0,0-5.67,5.45c0,3,2,5.46,5.67,5.46A12.69,12.69,0,0,0,111,47a5.15,5.15,0,0,1,.86-.12L112,45Zm2.58,2.26c.42,0,1.25,0,1.46,0s1,0,1.32,0v-.41c-.48-.17-.65-.4-.61-.61a3.3,3.3,0,0,1,.18-.56l.59-1.43h3.86l.56,1.43a4.52,4.52,0,0,1,.18.56c0,.21,0,.44-.49.61v.41l1.67,0c.25,0,1.22,0,1.63,0v-.41a1.43,1.43,0,0,1-1.08-1.09l-3.06-7.92c-.13-.35-.36-1.27-.36-1.27h-1.12a11.35,11.35,0,0,1-.36,1.27l-3.29,7.92c-.23.56-.43.92-1.08,1.09v.41Zm3.33-3.95,1.61-3.86,1.5,3.86Zm10,3.95,1.66,0h3.12a22,22,0,0,1,2.6.1l.26-2.2-.41-.1a1.83,1.83,0,0,1-1.82,1.3H130V37.86c0-.41.25-.65.87-.82v-.41l-1.74,0-1.74,0V37c.62.13.85.41.85.82v8.07a.9.9,0,0,1-.79.88v.41Zm15.17-.35a11.37,11.37,0,0,0,3,.51c2.16,0,3.72-1.15,3.72-3.15A2.48,2.48,0,0,0,148.16,42c-1-.58-2.24-1-3.19-1.55a1.68,1.68,0,0,1-.94-1.58c0-.93.84-1.64,2.05-1.64a2.65,2.65,0,0,1,2.54,1.54H149L149,36.65c-1,0-1.92-.18-2.74-.18-2.06,0-3.88.9-3.88,3A2.73,2.73,0,0,0,144,42.1a28.68,28.68,0,0,1,3.11,1.48,1.49,1.49,0,0,1,.59,1.33c0,1.16-.89,1.6-2.12,1.6a3.65,3.65,0,0,1-1.76-.44A2.49,2.49,0,0,1,143,44.9h-.43l.07,2Zm19-1.91c-.64,1.25-1.94,1.53-3.29,1.53-2.46,0-3.78-2.48-3.78-4.57,0-2.54,1.39-4.56,3.78-4.56a3.25,3.25,0,0,1,3.13,1.52h.41l-.1-1.89a3.7,3.7,0,0,1-.86-.11,12.39,12.39,0,0,0-2.58-.41,5.33,5.33,0,0,0-5.67,5.45c0,3,2,5.46,5.67,5.46a12.69,12.69,0,0,0,2.75-.41,5,5,0,0,1,.85-.12L162,45ZM165,47.22l1.54,0,1.63,0v-.41a.9.9,0,0,1-.71-.83V42.09h5.67V46a.88.88,0,0,1-.69.83v.41l1.61,0,1.55,0v-.41a.94.94,0,0,1-.71-.83V37.86a.93.93,0,0,1,.71-.82v-.41l-1.55,0-1.61,0V37a.87.87,0,0,1,.69.82v3.29h-5.67V37.86a.93.93,0,0,1,.71-.82v-.41l-1.63,0-1.54,0V37a.92.92,0,0,1,.71.82V46a.93.93,0,0,1-.71.83v.41Zm19.15.16a5.46,5.46,0,0,0,0-10.91A5.3,5.3,0,0,0,178.77,42a5.24,5.24,0,0,0,5.38,5.42Zm0-.89c-2.45,0-3.49-2.17-3.49-4.53s1-4.6,3.49-4.6,3.46,2.23,3.46,4.6-1,4.53-3.46,4.53Zm13.39.89a5.46,5.46,0,0,0,0-10.91A5.3,5.3,0,0,0,192.16,42a5.24,5.24,0,0,0,5.38,5.42Zm0-.89c-2.45,0-3.49-2.17-3.49-4.53s1-4.6,3.49-4.6S201,39.59,201,42s-1,4.53-3.47,4.53Zm8.27.73,1.66,0h3.12a21.83,21.83,0,0,1,2.59.1l.27-2.2L213,45a1.85,1.85,0,0,1-1.83,1.3h-2.86V37.86c0-.41.25-.65.87-.82v-.41l-1.74,0-1.74,0V37c.62.13.85.41.85.82v8.07a.9.9,0,0,1-.78.88v.41Z"/><path class="cls-2" d="M238,13.91h4.08c2.16,0,3.76.7,3.76,2.69a2.28,2.28,0,0,1-1.91,2.48v0a2.43,2.43,0,0,1,2.24,2.64c0,2-1.62,3-3.83,3H238Zm3.91,4.51c1.43,0,2.18-.44,2.18-1.47s-.65-1.43-2.15-1.43h-2.15v2.9Zm.24,4.71c1.55,0,2.22-.49,2.22-1.57S243.47,20,241.93,20h-2.17v3.16Z"/><path class="cls-2" d="M248.57,13.91h1.82V23h5v1.67h-6.8Z"/><path class="cls-2" d="M260.33,13.87h1.79L266,24.71h-1.87l-.88-2.57h-4.1l-.89,2.57h-1.7Zm2.33,6.67-1.47-4.38h0l-1.5,4.38Z"/><path class="cls-2" d="M266.16,13.91H268l2.78,8.42h0l2.83-8.42h1.72l-3.75,10.84h-1.72Z"/><path class="cls-2" d="M279.42,13.87h1.8L285,24.71h-1.87l-.87-2.57h-4.1l-.89,2.57H275.6Zm2.34,6.67-1.48-4.38h0l-1.5,4.38Z"/><path class="cls-2" d="M288.17,15.61h-3.32v-1.7h8.47v1.7H290v9.1h-1.83Z"/><path class="cls-2" d="M295.31,13.91h1.85l5.1,7.71h0V13.91H304v10.8h-1.67L297,16.84h0v7.87h-1.69Z"/><path class="cls-2" d="M306.92,13.91h1.83v10.8h-1.83Z"/><path class="cls-2" d="M311.69,13.91h1.82v5l4.25-5h2.16l-3.68,4.16,4.13,6.64h-2.09L315,19.47l-1.53,1.69v3.55h-1.82Z"/><path class="cls-2" d="M326.23,13.91h1.84v10.8h-1.84Z"/><path class="cls-2" d="M331,13.91h1.86l5.1,7.71h0V13.91h1.69v10.8H338l-5.3-7.87h0v7.87H331Z"/><path class="cls-2" d="M341.93,22.17l1.44-.76a3.13,3.13,0,0,0,3,1.88c1.31,0,2.2-.42,2.2-1.4s-.67-1.37-2.45-1.89c-2.09-.62-3.76-1.19-3.76-3.24,0-1.84,1.5-3.05,3.69-3.05a4.25,4.25,0,0,1,4,2.32l-1.33.92A3,3,0,0,0,346,15.37c-1.19,0-1.88.44-1.88,1.23,0,1,.77,1.34,2.54,1.86,2,.6,3.67,1.27,3.67,3.3,0,1.77-1.5,3.15-4.06,3.15A4.47,4.47,0,0,1,341.93,22.17Z"/><path class="cls-2" d="M354.67,15.61h-3.32v-1.7h8.47v1.7H356.5v9.1h-1.83Z"/><path class="cls-2" d="M361.92,13.91h1.84v10.8h-1.84Z"/><path class="cls-2" d="M369.19,15.61h-3.33v-1.7h8.48v1.7H371v9.1h-1.82Z"/><path class="cls-2" d="M376.18,20.77V13.91H378v6.7c0,1.65.71,2.62,2.38,2.62s2.36-.94,2.36-2.61V13.91h1.8v6.84a3.8,3.8,0,0,1-4.18,4.13C377.39,24.88,376.18,23.22,376.18,20.77Z"/><path class="cls-2" d="M389.7,15.61h-3.33v-1.7h8.48v1.7h-3.33v9.1H389.7Z"/><path class="cls-2" d="M396.83,13.91h7v1.7h-5.14v2.68h3.77v1.62h-3.77V23h5.44v1.67h-7.27Z"/><path d="M237.92,29.15h3.93c2.08,0,3.62.68,3.62,2.58a2.19,2.19,0,0,1-1.84,2.39v0a2.34,2.34,0,0,1,2.15,2.54c0,1.91-1.56,2.85-3.68,2.85h-4.18Zm3.76,4.34c1.38,0,2.11-.42,2.11-1.42s-.63-1.37-2.08-1.37h-2.06v2.79Zm.24,4.53c1.49,0,2.13-.47,2.13-1.51S243.21,35,241.74,35h-2.09v3Z"/><path d="M248,29.15h1.77V39.54H248Z"/><path d="M251.91,34.35c0-3.5,2.06-5.39,4.7-5.39s4.68,1.89,4.68,5.39-2.05,5.39-4.68,5.39S251.91,37.84,251.91,34.35Zm7.61,0c0-2.45-1.17-3.78-2.91-3.78s-2.93,1.33-2.93,3.78,1.16,3.8,2.93,3.8S259.52,36.79,259.52,34.35Z"/><path d="M263.29,29.15h2.31l2.78,8.24h0l2.69-8.24h2.36V39.54h-1.7V31.79h0a22,22,0,0,1-.62,2.12l-2,5.63h-1.56l-2-5.63a17.1,17.1,0,0,1-.63-2.19h0v7.82h-1.58Z"/><path d="M276,29.15h6.71v1.63h-5v2.58h3.64v1.56h-3.64v3H283v1.6h-7Z"/><path d="M284.83,29.15h3c3.26,0,5.39,1.52,5.39,5.15s-2.17,5.24-5.39,5.24h-3ZM288,38c2.37,0,3.48-1,3.48-3.67s-1.13-3.52-3.51-3.52h-1.34V38Z"/><path d="M295.31,29.15h1.77V39.54h-1.77Z"/><path d="M299.18,34.32c0-3.48,1.95-5.36,4.57-5.36a3.8,3.8,0,0,1,4,3.22l-1.68.48c-.39-1.37-1-2.08-2.37-2.08C302,30.58,301,32,301,34.3s1.05,3.84,2.81,3.84c1.35,0,2.11-.68,2.5-2.24l1.67.38a4,4,0,0,1-4.18,3.46C301.08,39.74,299.18,37.9,299.18,34.32Z"/><path d="M312.33,29.11h1.72l3.68,10.43h-1.79l-.85-2.47h-3.94l-.86,2.47h-1.64Zm2.24,6.41-1.41-4.21h0l-1.45,4.21Z"/><path d="M319.41,29.15h1.75v8.79H326v1.6h-6.54Z"/><path d="M330.88,29.15h1.77V39.54h-1.77Z"/><path d="M335.26,29.15h1.79L342,36.56h0V29.15h1.63V39.54H342L336.92,32h0v7.57h-1.63Z"/><path d="M346.12,29.15h6.54v1.63h-4.79v2.78h3.47v1.56h-3.47v4.42h-1.75Z"/><path d="M353.52,34.35c0-3.5,2.06-5.39,4.7-5.39s4.68,1.89,4.68,5.39-2,5.39-4.68,5.39S353.52,37.84,353.52,34.35Zm7.61,0c0-2.45-1.17-3.78-2.91-3.78s-2.93,1.33-2.93,3.78,1.16,3.8,2.93,3.8S361.13,36.79,361.13,34.35Z"/><path d="M364.9,29.15h3.72c2.47,0,3.9,1,3.9,3.12a2.77,2.77,0,0,1-2.3,2.95l2.44,4.32h-1.88l-2.33-4.1h-1.83v4.1H364.9Zm3.65,4.76c1.46,0,2.24-.36,2.24-1.6s-.77-1.56-2.26-1.56h-1.91v3.16Z"/><path d="M374.74,29.15h2.32l2.78,8.24h0l2.69-8.24h2.36V39.54h-1.7V31.79h0a21.9,21.9,0,0,1-.61,2.12l-2,5.63H379l-2-5.63a17.1,17.1,0,0,1-.63-2.19h0v7.82h-1.59Z"/><path d="M390.27,29.11H392l3.68,10.43h-1.8L393,37.07h-4l-.85,2.47H386.6Zm2.25,6.41-1.42-4.21h0l-1.44,4.21Z"/><path d="M398.49,30.78h-3.2V29.15h8.15v1.63h-3.2v8.76h-1.75Z"/><path d="M405.26,29.15H407V39.54h-1.77Z"/><path d="M409.13,34.32c0-3.48,2-5.36,4.57-5.36a3.8,3.8,0,0,1,4,3.22l-1.67.48c-.4-1.37-1-2.08-2.38-2.08-1.75,0-2.78,1.37-2.78,3.72s1.06,3.84,2.81,3.84c1.35,0,2.11-.68,2.5-2.24l1.67.38a4,4,0,0,1-4.18,3.46C411,39.74,409.13,37.9,409.13,34.32Z"/><path d="M419.16,37.1l1.39-.73a3,3,0,0,0,2.87,1.81c1.26,0,2.12-.41,2.12-1.35s-.65-1.32-2.36-1.82c-2-.59-3.62-1.14-3.62-3.12,0-1.77,1.44-2.93,3.55-2.93A4.1,4.1,0,0,1,427,31.19l-1.28.88a2.87,2.87,0,0,0-2.63-1.51c-1.15,0-1.81.42-1.81,1.17,0,1,.75,1.3,2.45,1.8,2,.58,3.53,1.22,3.53,3.17,0,1.7-1.44,3-3.91,3A4.31,4.31,0,0,1,419.16,37.1Z"/><path class="cls-2" d="M22.16.18H.05L0,17.87C0,39.56,21.75,53.38,22,53.51l.07.05a1,1,0,0,0,.19-.1C25.92,51,44.36,38,44.36,18V.22s-22.2,0-22.2,0ZM44.23,15.85H.44V13.3H44.23v2.55Z"/><path class="cls-3" d="M9.5,17.9s-.05.28-.05.28c0,.17-.15.29-.32.25l-.63-.1a1.16,1.16,0,0,0-.68-.06,1.91,1.91,0,0,0-.35.32l.1.05a.74.74,0,0,1,.55.53,1.24,1.24,0,0,0,.3.69l.11.15a.34.34,0,0,1,.08.19.21.21,0,0,1-.07.15l-.29.34-.17.18-.21.54c.06.12.13.23.22.24a1.48,1.48,0,0,1,.7,0l.41,0h.08l.16,0a.79.79,0,0,1,.64.11l.2.42a1.27,1.27,0,0,1,.07.37,2.81,2.81,0,0,1,0,.44l0,.24a.34.34,0,0,1-.06.15,3.88,3.88,0,0,1-1.54,1.33l.05,0a.1.1,0,0,0,0,.07v0c.08.07.32.05.49,0l.17,0a2.72,2.72,0,0,0,.79-.21L11,24.4c.15,0,.25,0,.32.18a1.38,1.38,0,0,0,.52.63s0,0,.16-.14a.78.78,0,0,1,.85-.21.2.2,0,0,1,.08,0,1.36,1.36,0,0,1,.44.77,1,1,0,0,0,.2.44.34.34,0,0,1,.09.19.25.25,0,0,1,0,.08.52.52,0,0,1-.37.48l-.05,0-.09.05-.69.11a1.67,1.67,0,0,0-.6.13s0,.06.09.09a3.72,3.72,0,0,0,1.17.3l.24,0,.54,0,.88,0a.25.25,0,0,1,.23.16.29.29,0,0,1,0,.32l-.14.23a.43.43,0,0,1-.09.1l-1.42.95-.84.31-1.09.43-.07,0a1.57,1.57,0,0,1-1.43-.47c-.25-.2-.46-.38-.71-.36a.81.81,0,0,0-.62.24.44.44,0,0,0-.09.29s0,.07,0,.11l.07,0a.57.57,0,0,1,.44.54,2.9,2.9,0,0,1-.42,1.26,2.54,2.54,0,0,0-.36,1s0,0,0,.07,0,.14.06.16l0,0a.2.2,0,0,0,.11,0l.08-.14A.76.76,0,0,1,9,32.41h.1c.56.07.88,0,1.08-.21a.27.27,0,0,1,.18-.1.63.63,0,0,1,.5.14.64.64,0,0,1,.23.46v.15c.34-.06.58-.37.86-.85l.12-.19a.41.41,0,0,1,.21-.15l.24-.06a1.09,1.09,0,0,1,1,0,.35.35,0,0,1,.14.2,1.13,1.13,0,0,1,0,.25,1.67,1.67,0,0,1-.24.77l-.1.26A2.57,2.57,0,0,0,14.7,32l.24-.3a.76.76,0,0,1,.69-.52h.09c.19.06.27,0,.53-.37l.43-.48c.06-.06.09-.06.19-.06H17c.09,0,.16,0,.22,0a.23.23,0,0,1,.09.18v.44l.42-.16.6-.37a.32.32,0,0,1,.27,0l2.2.57a.71.71,0,0,1,.53.73,1.84,1.84,0,0,1,0,.26c0,.09,0,.15,0,.2s0,.11,0,.13a.35.35,0,0,1,.09.23.59.59,0,0,1,0,.13c-.09.21-.32.46-.91.46l-1.11.06a3.4,3.4,0,0,0-2.42.62l-.6.61a.34.34,0,0,1-.22.09,2.19,2.19,0,0,0-1.11.45,3,3,0,0,1-1.12.52,1.82,1.82,0,0,1-1,.16,1.24,1.24,0,0,0-.53,0,2.53,2.53,0,0,0,1.31.64,2,2,0,0,0,.27,0,.8.8,0,0,1,.77.38.2.2,0,0,1,0,.11c0,.3.08.41.2.46l.05,0a.57.57,0,0,1,.71,0l.52.52.58.59a.24.24,0,0,1,0,.33.92.92,0,0,1-1.07.34l-.25,0a1.15,1.15,0,0,0-.33,0,1.5,1.5,0,0,1-1.57-.34l.06.06-.44-.37a1.72,1.72,0,0,0-1.1-.6c-.45.13-.65.27-.69.5v0l.11.12.19.21a.24.24,0,0,1,.07.18v0a.29.29,0,0,1-.16.21,1.48,1.48,0,0,0-.78,1.07,1,1,0,0,0,0,.17l0,.07.14,0a.77.77,0,0,1,.7,0,.29.29,0,0,1,.17.24l0,.34c0,.38.06.55.19.64l.17-.07a.92.92,0,0,1,1.08,0c.08,0,.19,0,.45-.17l.42-.2s0,0,.09,0c.78,0,1.09.68,1.3,1.12h0l0,0c.34.27.63.46.88.39a.45.45,0,0,0,0-.11,1.57,1.57,0,0,0,0-.27,1.76,1.76,0,0,1,0-.34.78.78,0,0,1,.49-.76c.05,0,.77-.07.77-.07h.56c.67.07,1.21.08,1.44-.4l.56-.95c0-.09.11-.55.11-.55a.3.3,0,0,1,.22-.25,1,1,0,0,1,.68.09l.17,0a4.13,4.13,0,0,1-.19-1.15,4,4,0,0,1,0-.6A2.77,2.77,0,0,1,22.12,36a.33.33,0,0,1,.35-.07l.15,0a.32.32,0,0,1,.19.23L23,37a5.14,5.14,0,0,0,.36,1.32c0,.07.05.1,0,.17l-.27,1.07-.22.85a2.75,2.75,0,0,1-1.48,1.8s0,.07,0,.11h.59a3.54,3.54,0,0,0,2.14-1.11.32.32,0,0,1,.32-.1c.16,0,.29,0,.5-.14A1,1,0,0,1,26,40.85a1.09,1.09,0,0,0,.73.09c.43,0,1.16-.1,1.36.75v.13l0,.39c.05.4.14,1.15-.66,1.36-.06,0-.07,0-.13,0l-.82-.31c-.64-.31-.93-.4-1.26,0-.07.08-.17.2-.13.28s.39.68,0,1l.07-.09,0,.08c-.21.35-.35.62-.25.85,0,0,0,.07.32,0a1.27,1.27,0,0,1,1,.11l.4.11.18.07.12.1a1.7,1.7,0,0,0,.79.42l0-.06.18-.35s.54-.29.54-.29c.33-.12.37-.16.37-.28a2,2,0,0,1,1-1.33.65.65,0,0,1,.2,0,2.09,2.09,0,0,0,.7-.28l0,0-.13-.14a.71.71,0,0,1-.12-.18,2,2,0,0,1,0-.23,1.76,1.76,0,0,1,.36-.93,1.16,1.16,0,0,0,.26-.58.44.44,0,0,0-.11-.28.19.19,0,0,1-.05-.1l-.09-.53a1.12,1.12,0,0,0-.31-.81l-.57-.29-.62-.3a.25.25,0,0,1-.15-.27c0-.28.18-.44.53-.49h.08a1.47,1.47,0,0,1,1,.12c.28.1.37.1.44.06a1.5,1.5,0,0,0-.47-.67,3.33,3.33,0,0,0-1.26-.47,3,3,0,0,1-1.94-1,.3.3,0,0,1-.06-.18.29.29,0,0,1,.1-.23l.08-.09a.33.33,0,0,1,.3-.09,2.67,2.67,0,0,0,2.35-.5,3.24,3.24,0,0,1,1.47-1.24,2.18,2.18,0,0,0,.58-1.84,1.7,1.7,0,0,1,.5-1.07l.63-.3a.73.73,0,0,0,.32-.14,2.22,2.22,0,0,0-1.21-.3.43.43,0,0,1-.19,0A.47.47,0,0,1,32,30V30a.71.71,0,0,1,.26-.47l.05,0a.6.6,0,0,1,.08-.08l.69-.39c.91-.49,1.47-.84,1.47-1.6v0a.34.34,0,0,0,0-.08,1.32,1.32,0,0,0-.33.2l-.48.32a4.85,4.85,0,0,1-1.44.46,4.62,4.62,0,0,0-1.33.44.26.26,0,0,1-.17,0,.43.43,0,0,1-.4-.26.53.53,0,0,1,.12-.58,1.73,1.73,0,0,1,.61-.46c.26-.15.42-.25.5-.44l.09-.26a1.57,1.57,0,0,1,.79-1.07l.45-.23a2.06,2.06,0,0,0,.18-.11s0,0-.07,0a2,2,0,0,0-1.89.73l-.1.07-.29.12a3.77,3.77,0,0,0-1.37.79.57.57,0,0,1-.13.08.52.52,0,0,1-.45-.07.51.51,0,0,1-.21-.41c-.12-1.19.83-2.06,1.6-2.75l.18-.17.14-.08.46-.24a1.4,1.4,0,0,1,1.4-.26,1.52,1.52,0,0,0,1.18.28,1.37,1.37,0,0,0,.59-.56,2.36,2.36,0,0,1,.7-.71,1.17,1.17,0,0,1,.82,0,1,1,0,0,0,.31.06l0-.07a.28.28,0,0,0,0-.09c0-.22-.15-.42-.38-.71L35.42,21a.25.25,0,0,1-.05-.16.59.59,0,0,1,0-.13,1.94,1.94,0,0,0,.13-.71,2,2,0,0,0-.67-1.5,1.51,1.51,0,0,0-.71-.19l.09.16.28.6a1.7,1.7,0,0,1,0,.22c0,1.32-1.14,1.89-2.07,2.35l-.8.44C29.78,23,27.32,24.5,27.18,27a5.12,5.12,0,0,0,1.53,3.48l0,.06.35.54a3.71,3.71,0,0,1,.81,2,2.05,2.05,0,0,1-.09.58,1.48,1.48,0,0,1-1.49.75c-1.84-.12-2.85-2-3.58-3.33l-.11-.21-.15-.33A4.42,4.42,0,0,1,24,29.09a.35.35,0,0,1,.1-.26.48.48,0,0,1,.66,0s.37.55.37.55a1.43,1.43,0,0,0,.1.19.92.92,0,0,0,.08-.27,3,3,0,0,0-.26-1l0-.11a3.07,3.07,0,0,0-.51-.53,2.59,2.59,0,0,1-.73-.87l0-.11v-.05A.61.61,0,0,1,24.3,26l.09,0a5.5,5.5,0,0,1-.21-1.47,6.47,6.47,0,0,1,.05-.76v0s0,0,0,0,0,0,0,0l.42-.45c.13-.08.14-.09.14-.12a6.36,6.36,0,0,1-.18-1.61c0-.21,0-.43,0-.64l.15-.53a1.61,1.61,0,0,0,.14-.53.42.42,0,0,0,0-.15.83.83,0,0,1-.35-.66l0-.17h.07a4.58,4.58,0,0,1-2-.56l-.68-.3a.9.9,0,0,0-.55.12l-.35.12-.39.07a1.63,1.63,0,0,0-1,.36c-.12.15-.12.34-.12.67v.21a.36.36,0,0,1,0,.1.46.46,0,0,1-.28.31.6.6,0,0,1-.51-.08l-.05,0a1.26,1.26,0,0,1-.64-1.48.23.23,0,0,0-.1-.22.8.8,0,0,0-.64-.09c-.18.07-.27.25-.4.56l-.08.17v.07a1.18,1.18,0,0,0,.13.55A4.8,4.8,0,0,0,18,20l.94.6a.19.19,0,0,1,.1.14,1,1,0,0,1,.05.3,1.36,1.36,0,0,1-.34.82l0,0a.65.65,0,0,1,.31.5.41.41,0,0,1,0,.11.34.34,0,0,1-.24.26,1.73,1.73,0,0,1-1.55-.33L17,22.09c-.09-.15-.14-.21-.2-.23a1,1,0,0,0-.12.25l-.14.27s0,.23,0,.23a1.07,1.07,0,0,1-.3.74.3.3,0,0,1-.24.08l-.26,0a11.89,11.89,0,0,1-3.45-1.88A6.49,6.49,0,0,1,11,20.08l-.29-.39a.31.31,0,0,1,0-.1l-.11-.37c-.2-.72-.37-1.19-.89-1.35l-.14,0Zm.76,4.25Zm-2.33-.46.13,0a.31.31,0,0,0-.13,0Zm10.69.38c.05-.07.08-.07.08-.12h0a.83.83,0,0,0-.08.12Zm5.75,4s0,0,0,.06,0-.07,0-.11,0,0,0,.05Zm-7.06,4.91h0s0,0,0,0l0,0Zm0,.07a.15.15,0,0,1,0-.06h0V31ZM11,32.89h0Zm10.56,6.27a.52.52,0,0,0,0,.11.5.5,0,0,0,0-.12ZM22,42.28h0Z"/><path class="cls-4" d="M.27.23H44.4s0,2.63,0,17.75c0,22.34-22.25,35.45-22.25,35.45S.27,39.66.27,17.87h0V.23"/><path class="cls-5" d="M31.07,43.59h0c-.15-.12-.32-.35-.42-.43-.17-.78,1-1.3.43-2.14-.14-.49,0-1.13-.52-1.5a11.38,11.38,0,0,0-1.21-.61c0-.2.26-.14.4-.2.64-.17,1.22.61,1.68,0,.06-.44-.35-.81-.64-1.1-.95-.66-2.39-.4-3.12-1.41l.09-.09a3,3,0,0,0,2.63-.58,2.91,2.91,0,0,1,1.44-1.21,2.47,2.47,0,0,0,.72-2.11,1.37,1.37,0,0,1,.41-.84c.35-.31,1.24-.2,1.07-.86a2.87,2.87,0,0,0-1.59-.44c-.26-.14.06-.34.14-.46.93-.6,2.37-1,2.31-2.34-.08-.14,0-.37-.28-.4-.41.06-.64.43-1,.61-.86.49-2,.4-2.8.92-.17,0-.11-.23,0-.29.31-.43.95-.46,1.18-1s.26-1,.75-1.18c.29-.23.75-.23.92-.58,0-.2-.26-.32-.43-.38a2.28,2.28,0,0,0-2.22.81,4.86,4.86,0,0,0-1.76,1A.18.18,0,0,1,29,26.6c-.12-1.15.92-2,1.67-2.68.55-.15,1-.81,1.65-.52a1.72,1.72,0,0,0,1.41.28c.64-.23.78-.95,1.36-1.29.43-.15,1,.49,1.3-.12s-.38-1-.67-1.47a2.32,2.32,0,0,0-.63-2.57A1.52,1.52,0,0,0,33.87,18c-.31.4.29.66.32,1.07.15,1.64-1.64,2-2.71,2.71-2,1-4.48,2.57-4.62,5.17a5.45,5.45,0,0,0,1.61,3.72c.52.9,1.36,1.74,1,2.86-.2.46-.75.52-1.18.52-1.73-.12-2.69-2-3.41-3.38a5,5,0,0,1-.57-1.61c.08-.09.17-.06.26,0,.31.29.28,1,.83.89.43-.6.12-1.33-.11-1.93s-1-.84-1.24-1.42c0-.43.6-.17.63-.6a5.37,5.37,0,0,1-.17-2.23c.11-.32.58-.29.58-.69A6.82,6.82,0,0,1,25,20.86c.09-.47.46-1,.2-1.45-.52-.14-.08-.78-.57-.92A6.8,6.8,0,0,1,22,17.65c-.44-.11-.75.14-1.1.23-.55.12-1.13.12-1.5.52a1.56,1.56,0,0,0-.21,1.1c-.08.26-.31,0-.43,0a.94.94,0,0,1-.43-1.1.53.53,0,0,0-.2-.55,1.12,1.12,0,0,0-1-.14c-.4.14-.52.6-.69.95a1.5,1.5,0,0,0,.17.87,19.86,19.86,0,0,0,2,1.35,1.11,1.11,0,0,1-.35,1c0,.32.43.32.37.61a1.4,1.4,0,0,1-1.27-.26c-.23-.2-.28-.63-.66-.69s-.41.46-.55.69,0,.7-.26.9l-.26,0a12.11,12.11,0,0,1-3.29-1.82A8.73,8.73,0,0,1,11,19.5c-.23-.72-.35-1.73-1.27-2-.21,0-.46.05-.49.28l-.06.29c-.46,0-.93-.32-1.42-.14a1.76,1.76,0,0,0-.6.55c0,.52.6.31.69.72a1.89,1.89,0,0,0,.46,1c-.11.2-.34.32-.46.52l-.29.72c.12.23.26.52.55.55.4-.17.75.12,1.18.06.26,0,.7-.2.73.23a1.91,1.91,0,0,1,0,1,3.49,3.49,0,0,1-1.42,1.21.49.49,0,0,0-.11.55c.2.29.66.18,1,.15.6,0,1.07-.38,1.64-.44a1.77,1.77,0,0,0,.67.78c.46.12.58-.52,1-.34s.26.84.6,1.18c0,.2-.17.2-.28.29-.5.17-1.19,0-1.56.4a.49.49,0,0,0,.31.52,4.93,4.93,0,0,0,1.51.38,10.59,10.59,0,0,1,1.38,0l-.14.23-1.42.95a17.82,17.82,0,0,0-1.9.73c-.9.23-1.27-.9-2.08-.84a1.1,1.1,0,0,0-.81.32.83.83,0,0,0-.17.77c.11.27.49.15.49.44,0,.81-.73,1.38-.78,2.22a.49.49,0,0,0,.26.55.43.43,0,0,0,.49-.09c.17-.17.17-.43.46-.49a1.52,1.52,0,0,0,1.36-.31.31.31,0,0,1,.34.28c0,.2,0,.44.2.52.73,0,1.07-.72,1.39-1.24.32-.06.67-.29,1-.08.12.49-.29.83-.37,1.29a.4.4,0,0,0,.32.26c.86-.11,1.35-.92,1.87-1.55.09-.18.18-.41.44-.41.66.2.83-.6,1.24-.9H17c.06.21-.09.35,0,.56.29.31.61,0,.9-.09l.6-.38c.72.23,1.47.41,2.22.58s0,.87.38,1.24c-.09.2-.35.26-.61.26-1.27.17-2.74-.17-3.75.78l-.61.61c-1,0-1.44.83-2.31,1-.57.4-1.47-.17-1.84.49.28.61,1,.81,1.64,1,.26.12.69,0,.84.26s.09.64.43.75.41-.29.64-.08c.32.43.78.63,1,1-.21.37-.7.14-1,.14l-.06,0c-.52.06-1.18.32-1.59-.17s-1-1-1.76-1c-.43.11-.89.29-1,.78-.06.29.23.4.34.58a1.56,1.56,0,0,0-.89,1.58c.06.15.12.32.32.32s.46-.23.72-.09c.06.44-.06,1.1.46,1.31.41-.06.69-.5,1.13-.18s.78-.2,1.15-.32c.61,0,.84.58,1,1,.38.29.9.75,1.42.47.34-.49-.32-1.13.34-1.45.41-.11.75,0,1.16-.06.63.06,1.41.12,1.76-.57l.58-1,.11-.6c.38-.12.93.49,1.1-.09a3.72,3.72,0,0,1-.17-1.79,2.47,2.47,0,0,1,.6-1.13l.15.06A9.87,9.87,0,0,0,23,38.41c-.06.67-.41,1.24-.49,1.91a2.47,2.47,0,0,1-1.3,1.56.44.44,0,0,0-.18.51c.18.32.61.15.93.21a3.92,3.92,0,0,0,2.34-1.21c.63.17.95-.61,1.53-.26s1.7-.35,1.93.63c-.09.46.35,1.3-.4,1.5-.75-.11-1.62-1.1-2.37-.23a.55.55,0,0,0-.17.64c.11.2.26.46.05.63-.2.35-.49.78-.31,1.21.14.26.43.26.69.21.43-.18.84.2,1.27.23a1.94,1.94,0,0,0,1.24.6c.2-.11.18-.37.32-.54.32-.26,1-.21,1-.78a1.77,1.77,0,0,1,.83-1,1.72,1.72,0,0,0,1.16-.59Z"/><path class="cls-6" d="M31.07,43.59h0c-.15-.12-.32-.35-.42-.43-.17-.78,1-1.3.43-2.14-.14-.49,0-1.13-.52-1.5a11.38,11.38,0,0,0-1.21-.61c0-.2.26-.14.4-.2.64-.17,1.22.61,1.68,0,.06-.44-.35-.81-.64-1.1-.95-.66-2.39-.4-3.12-1.41l.09-.09a3,3,0,0,0,2.63-.58,2.91,2.91,0,0,1,1.44-1.21,2.47,2.47,0,0,0,.72-2.11,1.37,1.37,0,0,1,.41-.84c.35-.31,1.24-.2,1.07-.86a2.87,2.87,0,0,0-1.59-.44c-.26-.14.06-.34.14-.46.93-.6,2.37-1,2.31-2.34-.08-.14,0-.37-.28-.4-.41.06-.64.43-1,.61-.86.49-2,.4-2.8.92-.17,0-.11-.23,0-.29.31-.43.95-.46,1.18-1s.26-1,.75-1.18c.29-.23.75-.23.92-.58,0-.2-.26-.32-.43-.38a2.28,2.28,0,0,0-2.22.81,4.86,4.86,0,0,0-1.76,1A.18.18,0,0,1,29,26.6c-.12-1.15.92-2,1.67-2.68.55-.15,1-.81,1.65-.52a1.72,1.72,0,0,0,1.41.28c.64-.23.78-.95,1.36-1.29.43-.15,1,.49,1.3-.12s-.38-1-.67-1.47a2.32,2.32,0,0,0-.63-2.57A1.52,1.52,0,0,0,33.87,18c-.31.4.29.66.32,1.07.15,1.64-1.64,2-2.71,2.71-2,1-4.48,2.57-4.62,5.17a5.45,5.45,0,0,0,1.61,3.72c.52.9,1.36,1.74,1,2.86-.2.46-.75.52-1.18.52-1.73-.12-2.69-2-3.41-3.38a5,5,0,0,1-.57-1.61c.08-.09.17-.06.26,0,.31.29.28,1,.83.89.43-.6.12-1.33-.11-1.93s-1-.84-1.24-1.42c0-.43.6-.17.63-.6a5.37,5.37,0,0,1-.17-2.23c.11-.32.58-.29.58-.69A6.82,6.82,0,0,1,25,20.86c.09-.47.46-1,.2-1.45-.52-.14-.08-.78-.57-.92A6.8,6.8,0,0,1,22,17.65c-.44-.11-.75.14-1.1.23-.55.12-1.13.12-1.5.52a1.56,1.56,0,0,0-.21,1.1c-.08.26-.31,0-.43,0a.94.94,0,0,1-.43-1.1.53.53,0,0,0-.2-.55,1.12,1.12,0,0,0-1-.14c-.4.14-.52.6-.69.95a1.5,1.5,0,0,0,.17.87,19.86,19.86,0,0,0,2,1.35,1.11,1.11,0,0,1-.35,1c0,.32.43.32.37.61a1.4,1.4,0,0,1-1.27-.26c-.23-.2-.28-.63-.66-.69s-.41.46-.55.69,0,.7-.26.9l-.26,0a12.11,12.11,0,0,1-3.29-1.82A8.73,8.73,0,0,1,11,19.5c-.23-.72-.35-1.73-1.27-2-.21,0-.46.05-.49.28l-.06.29c-.46,0-.93-.32-1.42-.14a1.76,1.76,0,0,0-.6.55c0,.52.6.31.69.72a1.89,1.89,0,0,0,.46,1c-.11.2-.34.32-.46.52l-.29.72c.12.23.26.52.55.55.4-.17.75.12,1.18.06.26,0,.7-.2.73.23a1.91,1.91,0,0,1,0,1,3.49,3.49,0,0,1-1.42,1.21.49.49,0,0,0-.11.55c.2.29.66.18,1,.15.6,0,1.07-.38,1.64-.44a1.77,1.77,0,0,0,.67.78c.46.12.58-.52,1-.34s.26.84.6,1.18c0,.2-.17.2-.28.29-.5.17-1.19,0-1.56.4a.49.49,0,0,0,.31.52,4.93,4.93,0,0,0,1.51.38,10.59,10.59,0,0,1,1.38,0l-.14.23-1.42.95a17.82,17.82,0,0,0-1.9.73c-.9.23-1.27-.9-2.08-.84a1.1,1.1,0,0,0-.81.32.83.83,0,0,0-.17.77c.11.27.49.15.49.44,0,.81-.73,1.38-.78,2.22a.49.49,0,0,0,.26.55.43.43,0,0,0,.49-.09c.17-.17.17-.43.46-.49a1.52,1.52,0,0,0,1.36-.31.31.31,0,0,1,.34.28c0,.2,0,.44.2.52.73,0,1.07-.72,1.39-1.24.32-.06.67-.29,1-.08.12.49-.29.83-.37,1.29a.4.4,0,0,0,.32.26c.86-.11,1.35-.92,1.87-1.55.09-.18.18-.41.44-.41.66.2.83-.6,1.24-.9H17c.06.21-.09.35,0,.56.29.31.61,0,.9-.09l.6-.38c.72.23,1.47.41,2.22.58s0,.87.38,1.24c-.09.2-.35.26-.61.26-1.27.17-2.74-.17-3.75.78l-.61.61c-1,0-1.44.83-2.31,1-.57.4-1.47-.17-1.84.49.28.61,1,.81,1.64,1,.26.12.69,0,.84.26s.09.64.43.75.41-.29.64-.08c.32.43.78.63,1,1-.21.37-.7.14-1,.14l-.06,0c-.52.06-1.18.32-1.59-.17s-1-1-1.76-1c-.43.11-.89.29-1,.78-.06.29.23.4.34.58a1.56,1.56,0,0,0-.89,1.58c.06.15.12.32.32.32s.46-.23.72-.09c.06.44-.06,1.1.46,1.31.41-.06.69-.5,1.13-.18s.78-.2,1.15-.32c.61,0,.84.58,1,1,.38.29.9.75,1.42.47.34-.49-.32-1.13.34-1.45.41-.11.75,0,1.16-.06.63.06,1.41.12,1.76-.57l.58-1,.11-.6c.38-.12.93.49,1.1-.09a3.72,3.72,0,0,1-.17-1.79,2.47,2.47,0,0,1,.6-1.13l.15.06A9.87,9.87,0,0,0,23,38.41c-.06.67-.41,1.24-.49,1.91a2.47,2.47,0,0,1-1.3,1.56.44.44,0,0,0-.18.51c.18.32.61.15.93.21a3.92,3.92,0,0,0,2.34-1.21c.63.17.95-.61,1.53-.26s1.7-.35,1.93.63c-.09.46.35,1.3-.4,1.5-.75-.11-1.62-1.1-2.37-.23a.55.55,0,0,0-.17.64c.11.2.26.46.05.63-.2.35-.49.78-.31,1.21.14.26.43.26.69.21.43-.18.84.2,1.27.23a1.94,1.94,0,0,0,1.24.6c.2-.11.18-.37.32-.54.32-.26,1-.21,1-.78a1.77,1.77,0,0,1,.83-1,1.72,1.72,0,0,0,1.16-.59Z"/><path class="cls-3" d="M17.85,18.31a1.19,1.19,0,0,0,.17,1c.61.67,1.53.87,1.91,1.65l-.23,0a19.69,19.69,0,0,0-2.14-1.36.91.91,0,0,1-.43-.89c.06-.26.14-.55.43-.61a.23.23,0,0,1,.29.2Z"/><path class="cls-3" d="M24,19c.11.17,0,.55.37.57a.19.19,0,0,1,.18.18,4.68,4.68,0,0,1-.18.89c-.08.23-.4.32-.4.64s.26.26.29.43l0,1.16c-.72.23-.38,1.12-.43,1.58a7.11,7.11,0,0,0,0,1.13c-.18.09-.49.06-.58.32A2.73,2.73,0,0,0,23.57,27c.26.38.81.47.83,1a2.87,2.87,0,0,1-1.07-.35,3.67,3.67,0,0,1-1.24-1.38.18.18,0,0,0-.29,0c-.05.35-.08.84-.4,1.07-.37-.23-.35-1.15-.95-.86a8.38,8.38,0,0,1-1.76,3.26c-.18.06-.21.32-.44.26a4.57,4.57,0,0,0,.29-3.18c-.09-.2-.29-.14-.43,0s-.26.4-.52.31c-.2-.31.2-.81-.26-1-.41.09-.64.43-1,.61a6.07,6.07,0,0,1-3,.75.82.82,0,0,1-.49-.15,4.07,4.07,0,0,1,.95-.49c1.22-.72,2-2.05,3-3-.09-.43-.47-.95-.06-1.36.32,0,.43.35.69.44A1.73,1.73,0,0,0,19,23a1,1,0,0,0,.72-.84.3.3,0,0,0-.2-.32c-.12,0-.26,0-.32-.11a.38.38,0,0,1,.32-.38c.49,0,1,1.07,1.32.21.21-.7-.43-1.22-.92-1.65a.49.49,0,0,1-.14-.49c.37-.23-.09-.55.2-.81.49-.37,1.24-.14,1.76-.52.89,0,1.53.69,2.34.9Z"/><path class="cls-3" d="M10.28,18.75a.61.61,0,0,1,0,.4c-.11.12-.26,0-.34-.06a.52.52,0,0,1-.21-.52c0-.6.55-.05.55.18Z"/><path class="cls-3" d="M9.88,19.61a6.34,6.34,0,0,1,1.9,1.82,10.9,10.9,0,0,0,4.08,2.34.72.72,0,0,1-.29.61c-.49.52-.9,1.12-1.42,1.59a.39.39,0,0,1-.32,0c-.51-.49-.46-1.5-1.35-1.53-.29,0-.52.34-.81.14s.09-.75-.35-.87c-.49.21-.89.76-1.47.67.38-.64,1-1.33.69-2.17a1.27,1.27,0,0,0-.66-.92c-.35,0-.55.38-.9.2-.14-.32-.78-.17-.52-.58s1.07-.4.73-1c-.23-.32-.78-.14-.84-.58.06-.25-.17-.6,0-.77.69-.06,1.12.63,1.53,1.06Z"/><path class="cls-3" d="M35.23,20c.09.46-.35.75-.23,1.18.12.23.49.29.46.55-1.09,0-1.3,1.48-2.39,1.45-.47-.09-.81-.58-1.36-.35-1.42.66-2.95,1.65-3.32,3.32A2,2,0,0,0,28.73,28a.5.5,0,0,0,.38,0c.29-.52.52-1.21,1.21-1.36a6,6,0,0,0,1.19-.52s.14-.06.17.06c-.17.49-.4,1.1-.95,1.27a2.07,2.07,0,0,0-.84,1.27,1,1,0,0,0,.14.81c.21.17.44-.06.61-.17a3.75,3.75,0,0,1,3-1.1c.06.08-.08.26-.2.29a3.42,3.42,0,0,0-2.16,2,.4.4,0,0,0,.23.32c.46,0,.83-.34,1.32-.29.12.32-.37.32-.49.58-.89.78,0,2.54-1.5,2.8-.43.12-.37.64-.66.9a2.26,2.26,0,0,1-2.11.72c-.58.06-1.07-.78-1.56-.23.06.58.52.89.81,1.39a6,6,0,0,0,2.66,1,.45.45,0,0,1,.26.23c0,.21-.26.15-.44.12A3.52,3.52,0,0,1,28,38.09c-.08,0-.17.09-.2.18.09.63.81.86,1.24,1.21s1,.14,1.22.66v.67a1.57,1.57,0,0,1,.23,1.13,1.45,1.45,0,0,0-.38,1.67c-.17.14-.43,0-.6.12-.21.43-.76.49-.9.92a.74.74,0,0,1-.58.72c-.29,0-.49.12-.75.06s.09-.52-.23-.64-.55.55-1,.32c-.2-.11-.41-.2-.49-.41s.23-.34.4-.46c1-.11,2.2-.28,2.54-1.32.06-.49-.17-.9-.08-1.33a1.43,1.43,0,0,0-1.24-1c-.53-.14-1.1.06-1.48-.31a.47.47,0,0,0-.49-.15c-.14,0-.2.23-.37.15s-.35-.35-.52-.15a2.58,2.58,0,0,1-1.71,1.59c-.11-.2.12-.43.21-.66a7.71,7.71,0,0,0,.57-1.76,1.24,1.24,0,0,0,.32-1.16A5.38,5.38,0,0,1,23.25,35a3.73,3.73,0,0,0-1.1-3.46c-.55-.32-1-.87-1.67-1-.44-.15-1.07,0-1.3-.41.05-.46.55-.72.75-1.12l.75-1.16c.32-.06.23.41.55.38.6,0,.57-1,1.21-.7.29.41.75.55,1,.9A10.82,10.82,0,0,0,25.62,33a3.45,3.45,0,0,0,3.58,1.56c.37-.32.89-.66,1-1.21.37-2.63-3-3.93-2.72-6.53.23-2.45,2.75-3.78,4.74-4.73,1.1-.58,2.48-1.36,2.57-2.78a.54.54,0,0,1,.06-.37c.4.14.37.63.4,1Z"/><path class="cls-3" d="M17.3,27.76c.32,0,.69-.35.84.08a4.78,4.78,0,0,1-.38,1.82c-.29.29-.72.06-1,.2s-.52,1.19-1.07.5c-.23-.09-.37.14-.49.25a5.17,5.17,0,0,1-.86,1.54c-.09.05-.23.11-.32,0-.06-.37.23-1-.32-1.15a1.3,1.3,0,0,0-.63.2c-.44,0-1,0-1.25.4,0,.21-.08.5-.34.53s-.61-.21-.72-.55c-.12-.09-.29-.21-.44-.06s-.31.63-.69.63a1.67,1.67,0,0,1-.78-.2c.06-.66.81-.75,1.27-1,.92-.2,1.62-.78,2.54-.95a11.34,11.34,0,0,0,3.73-2.72,1.91,1.91,0,0,1,.52-.14c.11.23.11.55.43.61Z"/><path class="cls-3" d="M10.26,30.41a1.12,1.12,0,0,1-1,.15c-.17-.18-.08-.49-.11-.75s.34-.15.49-.06.61.32.61.66Z"/><path class="cls-3" d="M22.61,34.14a2.08,2.08,0,0,1-.29,1.12A3.81,3.81,0,0,0,21.2,37c0,.5-.06,1-.09,1.42-.14.12-.26-.06-.35-.15-.23-.34-.17-1.12-.77-1a1.34,1.34,0,0,0-.44,1.33c.26.38.78.67.49,1.16-.43.23-.31.89-.89.95-.87.12-1.76-.26-2.46.35a2,2,0,0,0-.49.78c-.4,0-.29-.49-.49-.72s-.43-.09-.63-.21-.64-.46-1-.2-.7.58-1.07.26l-.52-.14c0-.18.17-.41,0-.58l-1-.46c-.06-.09,0-.2.08-.26.84-.55,1.79.08,2.77-.09a5,5,0,0,1,1.94-.09c.37,0,.84.12,1.07-.2a.67.67,0,0,0,.06-.72c-.29-.64-1.22-.78-1.33-1.53a.68.68,0,0,0-.32-.35c-.23-.08-.38.18-.61.06-.05-.2-.11-.46-.34-.55-.44,0-1,.2-1.33-.08.06-.23.34-.18.52-.29a7.68,7.68,0,0,0,1.67-.78l.84-.12c.84-1.36,2.54-1.27,4-1.33L21.92,33c.49.12.61.69.69,1.1Z"/><path class="cls-3" d="M13.4,38.82c-.26.17-.6,0-.89,0a.77.77,0,0,1-.21-.63c.44-.2.9.23,1.1.61Z"/><path class="cls-3" d="M26.31,43.49c0,.15-.18.12-.23.12s-.12-.06-.17-.12c0-.26.34-.11.4,0Z"/><path class="cls-5" d="M22.56,19.47a.33.33,0,0,1-.29.4,1.08,1.08,0,0,1-.93-.26c-.26-.2-.11-.54-.05-.81a.35.35,0,0,1,.46-.05,3.46,3.46,0,0,1,.81.72Z"/><path class="cls-5" d="M24.2,20a1,1,0,0,1-.26.64.21.21,0,0,1-.32-.12.71.71,0,0,1,.21-.64c.11-.08.34-.05.37.12Z"/><path class="cls-5" d="M22.35,22l0,.49c-.49.55-.49,1.39-1.24,1.7a.33.33,0,0,1-.4-.29,2.39,2.39,0,0,1,0-1c.32-.18.4.46.66.17a4.78,4.78,0,0,1,.72-1.19.24.24,0,0,1,.26.15Z"/><polygon class="cls-5" points="0.29 13.05 44.38 13.05 44.38 16.09 0.29 16.09 0.29 13.05 0.29 13.05"/><polygon class="cls-6" points="0.29 13.05 44.38 13.05 44.38 16.09 0.29 16.09 0.29 13.05 0.29 13.05"/><polygon class="cls-3" points="33.07 13.6 38.08 13.6 38.08 15.54 33.07 15.54 33.07 13.6 33.07 13.6"/><polygon class="cls-3" points="22.18 13.6 27.19 13.6 27.19 15.54 22.18 15.54 22.18 13.6 22.18 13.6"/><polygon class="cls-3" points="11.21 13.6 16.22 13.6 16.22 15.55 11.21 15.55 11.21 13.6 11.21 13.6"/><polygon class="cls-3" points="0.82 13.6 5.37 13.6 5.37 15.55 0.82 15.55 0.82 13.6 0.82 13.6"/><path class="cls-5" d="M42.37,2.17c.36.45.12,1.08.21,1.62.39.32,1.23,0,1.31.71a.83.83,0,0,1-.26.69c-.27.27-.75,0-1,.3-.09.9,0,1.88,0,2.9.27.18.63.15.93.3a1,1,0,0,1,.29.6.57.57,0,0,1-.42.5c-.23.12-.65,0-.77.33-.12.48,0,1-.06,1.53a2.62,2.62,0,0,1-1.08.15l-3.53,0c-.32.18-.68.51-1.13.33a5.17,5.17,0,0,0-2.63-.36l-2.63,0c-.48-.42-.12-1.14-.27-1.65-.18-.3-.66-.18-1-.33a.58.58,0,0,1-.3-.65.64.64,0,0,1,.57-.51c.21-.12.6.09.69-.24,0-.93-.06-1.82,0-2.69-.06-.54-.78-.21-1.08-.42A.76.76,0,0,1,30,4.41c.24-.5.84-.38,1.29-.53l.06-.15.06-1.56.15-.12,4.09.09A4.29,4.29,0,0,1,37,2.5c.87-.66,2.15-.33,3.2-.51.72.15,1.46,0,2.18.18Z"/><path class="cls-7" d="M42.37,2.17c.36.45.12,1.08.21,1.62.39.32,1.23,0,1.31.71a.83.83,0,0,1-.26.69c-.27.27-.75,0-1,.3-.09.9,0,1.88,0,2.9.27.18.63.15.93.3a1,1,0,0,1,.29.6.57.57,0,0,1-.42.5c-.23.12-.65,0-.77.33-.12.48,0,1-.06,1.53a2.62,2.62,0,0,1-1.08.15l-3.53,0c-.32.18-.68.51-1.13.33a5.17,5.17,0,0,0-2.63-.36l-2.63,0c-.48-.42-.12-1.14-.27-1.65-.18-.3-.66-.18-1-.33a.58.58,0,0,1-.3-.65.64.64,0,0,1,.57-.51c.21-.12.6.09.69-.24,0-.93-.06-1.82,0-2.69-.06-.54-.78-.21-1.08-.42A.76.76,0,0,1,30,4.41c.24-.5.84-.38,1.29-.53l.06-.15.06-1.56.15-.12,4.09.09A4.29,4.29,0,0,1,37,2.5c.87-.66,2.15-.33,3.2-.51.72.15,1.46,0,2.18.18Z"/><path class="cls-5" d="M27.7,2.06c.18,0,.36.12.51.21.15.57,0,1,.12,1.59.39.15,1,0,1.17.51a.81.81,0,0,1-.06.74c-.3.39-1,0-1.2.48a18,18,0,0,0,0,2.84c.3.3.84.06,1.11.45a.68.68,0,0,1,.15.63c-.24.39-.75.39-1.17.48-.18.14,0,.41-.09.62-.15.39.21.87-.24,1.11-1.22.18-2.39-.06-3.64,0l-1.2,0c-.33.21-.72.54-1.14.3l-.74-.33c-.9,0-1.74,0-2.63,0-.6,0-1.44.24-1.83-.33a5.7,5.7,0,0,0,0-1.43c-.45-.16-1.19,0-1.43-.51a1,1,0,0,1,.06-.6c.33-.48,1.07-.06,1.4-.45l0-1.32a11.06,11.06,0,0,0,0-1.73c-.44-.18-1.22.06-1.31-.63A.6.6,0,0,1,15.93,4c.29-.09.71.06.86-.21l.09-1.41c.36-.6,1.23-.24,1.77-.33l2.72,0c.42.06.8.48,1.22.21,1.62-.66,3.44-.09,5.11-.27Z"/><path class="cls-7" d="M27.7,2.06c.18,0,.36.12.51.21.15.57,0,1,.12,1.59.39.15,1,0,1.17.51a.81.81,0,0,1-.06.74c-.3.39-1,0-1.2.48a18,18,0,0,0,0,2.84c.3.3.84.06,1.11.45a.68.68,0,0,1,.15.63c-.24.39-.75.39-1.17.48-.18.14,0,.41-.09.62-.15.39.21.87-.24,1.11-1.22.18-2.39-.06-3.64,0l-1.2,0c-.33.21-.72.54-1.14.3l-.74-.33c-.9,0-1.74,0-2.63,0-.6,0-1.44.24-1.83-.33a5.7,5.7,0,0,0,0-1.43c-.45-.16-1.19,0-1.43-.51a1,1,0,0,1,.06-.6c.33-.48,1.07-.06,1.4-.45l0-1.32a11.06,11.06,0,0,0,0-1.73c-.44-.18-1.22.06-1.31-.63A.6.6,0,0,1,15.93,4c.29-.09.71.06.86-.21l.09-1.41c.36-.6,1.23-.24,1.77-.33l2.72,0c.42.06.8.48,1.22.21,1.62-.66,3.44-.09,5.11-.27Z"/><path class="cls-5" d="M7.51,2.39c1.47-.63,3.11-.18,4.72-.27.42.09,1-.21,1.32.24,0,.48,0,.93,0,1.41.15.33.63.06.9.24s.33.18.35.36a.7.7,0,0,1-.08.65c-.3.33-.69.21-1.08.3l-.12.18a17.1,17.1,0,0,0,0,2.48c0,.18-.09.42.12.54a1.63,1.63,0,0,1,1.14.27,1,1,0,0,1,.06.72c-.18.89-1.56-.12-1.41.92a3.7,3.7,0,0,1-.06,1.29c-1.61,0-3.26-.12-4.78,0a1.74,1.74,0,0,1-1,.42,2.22,2.22,0,0,1-.84-.42c-1.46-.06-2.9-.06-4.3-.09-.45-.39-.12-1-.27-1.59-.24-.26-.6-.06-.87-.2s-.27-.24-.38-.39a1,1,0,0,1,.23-.81A1.68,1.68,0,0,1,2,8.43l.15-.15a24.66,24.66,0,0,0-.06-3c-.15-.21-.42,0-.6-.18S1,5,.9,4.69.79,4.22,1,4s.89.06,1.19-.3l.12-1.44c.24-.42.81-.21,1.22-.21a10.7,10.7,0,0,1,2.4,0,4.52,4.52,0,0,1,1.55.33Z"/><path class="cls-7" d="M7.51,2.39c1.47-.63,3.11-.18,4.72-.27.42.09,1-.21,1.32.24,0,.48,0,.93,0,1.41.15.33.63.06.9.24s.33.18.35.36a.7.7,0,0,1-.08.65c-.3.33-.69.21-1.08.3l-.12.18a17.1,17.1,0,0,0,0,2.48c0,.18-.09.42.12.54a1.63,1.63,0,0,1,1.14.27,1,1,0,0,1,.06.72c-.18.89-1.56-.12-1.41.92a3.7,3.7,0,0,1-.06,1.29c-1.61,0-3.26-.12-4.78,0a1.74,1.74,0,0,1-1,.42,2.22,2.22,0,0,1-.84-.42c-1.46-.06-2.9-.06-4.3-.09-.45-.39-.12-1-.27-1.59-.24-.26-.6-.06-.87-.2s-.27-.24-.38-.39a1,1,0,0,1,.23-.81A1.68,1.68,0,0,1,2,8.43l.15-.15a24.66,24.66,0,0,0-.06-3c-.15-.21-.42,0-.6-.18S1,5,.9,4.69.79,4.22,1,4s.89.06,1.19-.3l.12-1.44c.24-.42.81-.21,1.22-.21a10.7,10.7,0,0,1,2.4,0,4.52,4.52,0,0,1,1.55.33Z"/><path class="cls-3" d="M7.3,2.77,7.42,3c.06,2,.06,4,.06,6.13l-.06.78c-.51,0-1-.24-1.58-.18a10.52,10.52,0,0,1-1.71-.09A6.22,6.22,0,0,1,4,7.55C4,6.05,4,4.23,4,2.62c0-.12.15-.18.24-.21,1,.09,2.19-.18,3,.36Z"/><path class="cls-3" d="M3.33,2.59c-.27.21-.63.59-.51,1,.12,2.51,0,4.76.12,7.12l.21.24A20.33,20.33,0,0,1,6.73,11c.06,0,.06.11,0,.18a2.89,2.89,0,0,1-1,.05l-3.05-.05c-.21-.18-.12-.6-.12-.84s.09-.66-.24-.84-.84,0-1.11-.3c.21-.6,1.17-.12,1.35-.78.09-1.1-.09-2.21,0-3.25-.12-.6-.78-.42-1.2-.51a.29.29,0,0,1-.12-.27c.36-.36,1.08.06,1.35-.45A11,11,0,0,0,2.7,2.56a.66.66,0,0,1,.63-.09v.12Z"/><path class="cls-3" d="M11.76,2.62c0,2.42,0,4.72,0,7.08A22.31,22.31,0,0,0,8,9.94c-.27-.24-.06-.63-.12-1-.06-.77,0-1.64,0-2.45,0-1.16-.06-2.48,0-3.62a1.06,1.06,0,0,1,1-.47l2.81,0,.09.15Z"/><path class="cls-3" d="M13.13,2.59c.09.47-.12,1.1.18,1.58.3.18.75.09,1,.15a.36.36,0,0,1,0,.42c-.33.33-1-.09-1.2.45,0,1.16-.06,2.3,0,3.49l.18.15c.39.06.87-.09,1.14.21,0,.18,0,.36-.18.42-.39.09-1-.12-1.17.3a11.6,11.6,0,0,1-.09,1.44l-.21.08-4.21-.06c-.09-.05,0-.12,0-.17l.42-.15,3.4,0c.36-.09.36-.54.39-.81,0-1.68,0-3.14,0-4.75A12.46,12.46,0,0,0,12.83,3c0-.17-.3-.29-.33-.5a.54.54,0,0,1,.63.09Z"/><path class="cls-3" d="M32.38,2.56c-.06.24-.36.42-.45.65,0,2.45,0,5.12.09,7.66l.21.12c1.32,0,2.72-.27,3.86.27.06,0,0,0,0,.05-1.44,0-2.87.09-4.28,0l-.12-.14a4.53,4.53,0,0,0-.17-1.53c-.33-.3-1.29.09-1.05-.6.36-.27.93.09,1.14-.36,0-1.25.06-2.36,0-3.52-.27-.36-.78-.12-1.14-.21-.12-.12-.21-.3-.09-.45.39-.33,1.52.09,1.32-.84.11-.39-.19-1.13.35-1.16.12,0,.27,0,.36.09Z"/><path class="cls-3" d="M42.13,2.62c.12.56-.12,1.13.21,1.64.35.09.92-.12,1.1.24,0,.72-1,.15-1.22.72.09,1.13-.09,2.06,0,3.28a.22.22,0,0,0-.06.33c.33.27.75-.18,1.07.12.21.06.09.24.09.36-.27.39-.92-.06-1.1.45l-.06,1.5-.21.08-4,0c-.06-.06,0-.09,0-.11l.48-.18h3c.15,0,.36-.15.36-.36,0-2.36-.06-4.82-.06-7.39l-.36-.71c.15-.15.57-.18.66.06Z"/><path class="cls-3" d="M32.83,3.54V10c-.06.18-.27.27-.39.39l-.12-.09c0-.69,0-1.47,0-2.12V7.64c0-1.41,0-3,0-4.4.12-.12.24-.35.39-.41a2.85,2.85,0,0,1,.12.71Z"/><path class="cls-3" d="M41.56,3.22c-.06,1.67,0,3.25,0,4.84,0,.74,0,1.4,0,2.09,0,.06,0,.09-.09.12-.51-.21-.33-.78-.36-1.23a14.41,14.41,0,0,1,.06-2l-.09-.21,0-3.91c.12-.27.36.12.45.27Z"/><path class="cls-3" d="M3.62,2.86c.12,2.42,0,4.75,0,7.05a.34.34,0,0,1-.29.27A6.86,6.86,0,0,1,3.27,8c-.06-1.53,0-3.23,0-4.76a.72.72,0,0,1,.38-.35Z"/><path class="cls-3" d="M12.53,3.12c0,2.43,0,4.82-.06,7-.06.12-.18,0-.27-.09a3.07,3.07,0,0,1,0-1.17c-.09-1.94,0-3.91,0-5.88.12-.15.3,0,.36.14Z"/><path class="cls-3" d="M37.16,6.17c0,.15-.32.15-.47.09l-.15-.06c.09-.33,0-.72.27-1,.27.18.24.59.35.92Z"/><path class="cls-3" d="M12.2,10.45c-.09.18-.35.09-.53.15h-1a9.19,9.19,0,0,0-2.24.06.29.29,0,0,1-.24-.27c.09-.27.42-.18.66-.27.92,0,2,0,2.93,0a.81.81,0,0,1,.38.33Z"/><path class="cls-3" d="M7.18,10.33c0,.15-.12.3-.27.36a19.8,19.8,0,0,0-3-.21l0,0a.45.45,0,0,1,.42-.33,12.91,12.91,0,0,1,2.9.21Z"/><path class="cls-3" d="M36.54,10.42c.09.06.09.21,0,.24-.36.42-.81-.09-1.29,0-.77-.09-1.64,0-2.42-.09.21-.66,1.14-.27,1.65-.39.68.09,1.46-.12,2.06.24Z"/><path class="cls-3" d="M40.93,10.27a.69.69,0,0,1,.33.39c-1.23.15-2.42-.15-3.59.18a.26.26,0,0,1-.18-.36c.24-.27.63-.21,1-.27l2.45.06Z"/><path class="cls-3" d="M8.17,10.9a.57.57,0,0,1-.18.65.45.45,0,0,1-.54.09c-.18,0-.21-.24-.24-.38-.06-.33.27-.45.45-.69a.77.77,0,0,1,.51.33Z"/><path class="cls-3" d="M37.4,11.08c0,.26,0,.65-.32.65a.45.45,0,0,1-.51-.3.66.66,0,0,1,.33-.68c.26,0,.39.18.5.33Z"/><path class="cls-3" d="M26.48,2.68c0,2.33,0,4.72,0,7.05l-.12.06c-1.29.12-2.54-.21-3.71.21-.21-.12,0-.48-.09-.69V3.09a.48.48,0,0,1,.33-.44c.33-.24.78-.15,1.2-.21l2.36.06.06.18Z"/><path class="cls-3" d="M27.88,2.62A6.76,6.76,0,0,0,28,4.17c.36.33,1.38-.15,1.17.66-.33.21-.78.06-1.14.12l-.09.12c-.15,1.19.09,2.42,0,3.49,0,.12.09.33.27.36.33,0,.84-.21,1,.21-.06.72-1,.06-1.23.63s.15,1-.06,1.52l-.15.1c-1.52,0-3,0-4.45-.07-.06,0,0-.11,0-.14l.27-.15c1.19-.12,2.51,0,3.77-.12a.33.33,0,0,0,.29-.36c0-2.27,0-4.64,0-7.18-.06-.36-.41-.56-.47-.89.2,0,.59-.12.71.15Z"/><path class="cls-3" d="M18,2.5c-.06.27-.3.36-.42.56-.18.48,0,1-.06,1.47,0,2.06,0,4,0,6a.39.39,0,0,0,.27.36L21,11a1,1,0,0,1,.51.21c-.06.18-.3.11-.45.14-1.2,0-2.48.06-3.65-.08l-.12-.09a4,4,0,0,0-.21-1.59c-.36-.15-.81,0-1.19-.12-.18-.09-.12-.33,0-.45.38-.21,1.13.12,1.34-.42,0-1.16.06-2.27,0-3.46-.33-.48-1,0-1.31-.48C16,4,17,4.56,17.24,4l.09-1.4c.18-.18.42-.12.63-.09Z"/><path class="cls-3" d="M18.41,2.91c.09,2.07-.12,3.92,0,6-.18.48.21,1.17-.48,1.29-.12-2.06,0-4.28-.09-6.52a.86.86,0,0,1,.45-.86l.12.11Z"/><path class="cls-3" d="M27.28,3.27c0,2.28.07,4.73-.08,6.94-.12,0-.27-.12-.3-.24,0-.93-.12-1.85-.06-2.84.06-1.29-.09-2.81.06-4.13.15-.09.38.09.38.27Z"/><path class="cls-3" d="M21.81,10.33c.12,0,.27.15.18.3l-.24.21c-1-.39-2.36-.12-3.46-.3a1.46,1.46,0,0,1,.33-.42,18.8,18.8,0,0,1,3.19.21Z"/><path class="cls-3" d="M26.57,10.18c.15.09.33.24.33.39l-.15.06a16.85,16.85,0,0,0-3.71.15c-.18,0-.39,0-.42-.21s.48-.36.78-.39c1.08-.09,2.12,0,3.17,0Z"/><path class="cls-3" d="M22.71,11.17c0,.23,0,.53-.3.53s-.54,0-.54-.3a.94.94,0,0,1,.45-.5c.21-.06.33.15.39.27Z"/><path class="cls-3" d="M22.11,7.4c.12-1.2,0-2.54.06-3.68,0-.36,0-.77-.24-1a9,9,0,0,0-3-.24c-.06,0-.18,0-.15.09,0,2.36,0,4.57,0,6.9l.05.27A13.27,13.27,0,0,0,21,9.79c.39.06.77.18,1.13.24a18.22,18.22,0,0,0,0-2.21l0-.42Z"/><path class="cls-5" d="M21.81,7.31c-.35-.3-.44-.75-.74-1.11.12-.18.33-.21.48-.36a1,1,0,0,0,.36-.92,1,1,0,0,0-.48-.75,4.83,4.83,0,0,0-2.07-.09.16.16,0,0,0-.06.27.54.54,0,0,1,.36.48c0,.81,0,1.61-.12,2.42l-.33.36c.33.3.78.06,1.26.15.12-.21-.21-.36-.27-.6s0-.57.15-.78c.45.39.6,1,1.14,1.38l.7,0,0-.38c-.09.06-.26-.09-.36-.12Zm-.92-1.47c-.21,0-.54.15-.6-.11s-.15-.9,0-1.26a.66.66,0,0,1,.9.15,1.46,1.46,0,0,1,.12.72c-.12.21-.18.44-.42.5Z"/><path class="cls-3" d="M40.78,3.3a1.55,1.55,0,0,0-.12-.83l-1.07,0c-.78.12-1.65-.12-2.28.26-.29.36-.15.78-.2,1.2l.21.77L37.18,5l-.46-.08-.12-.26c.06-.19.11-.37.15-.56,0-.51.15-1.28-.51-1.49-1-.09-1.88-.12-2.93-.12a.21.21,0,0,0-.18.09c0,2.3,0,4.27,0,6.54,0,.27-.09.63.21.75.86-.12,1.64,0,2.48,0,.33,0,.54.3.87.21a25.49,25.49,0,0,0,.06-3c0-.08,0-.28-.12-.32V6.47l.52.06,0,.17-.07.07,0,3.08c0,.09,0,.33.2.3.93-.54,2.07-.18,3.14-.3l.24-.09a16.51,16.51,0,0,0,.06-2.33c.06-1.35,0-2.69,0-4.13Z"/><path class="cls-5" d="M37.31,6.68a.84.84,0,0,1,.18.6l-.24.33.15.12a3.79,3.79,0,0,0,1.17-.06c-.09-.18-.3-.24-.42-.36-.42-1.1-.71-2.26-1-3.4l-.36.17c-.21,1-.63,1.94-.87,3-.06.21-.27.24-.42.36s-.3-.18-.39-.3c0-.9.09-1.65,0-2.6,0-.15.15-.33.3-.18s.21.42.3.63a.13.13,0,0,0,.24-.06L36.09,4c-.12-.3-.39,0-.63,0C35,4,34.38,4.08,34,3.81c-.36.12-.27.63-.33,1a.13.13,0,0,0,0,.15c.3-.18.45-.66.86-.54l0,.9-.08,1.94c-.12.15-.42.21-.39.42a10,10,0,0,0,1.64.06,2.12,2.12,0,0,0,.87,0,.15.15,0,0,0,0-.21c-.18-.09-.39-.24-.33-.48s.12-.45.39-.36a.12.12,0,0,1,.11.08l.42,0h0c.07-.06.07-.09.15-.09Zm-.62-.42-.15-.06c.09-.33,0-.72.27-1,.27.18.24.59.35.92,0,.15-.32.15-.47.09Z"/><path class="cls-5" d="M40.05,4.23c0,.21.15.61,0,.76-.21-.18-.24-.36-.57-.46s-.37,0-.4.25c-.06.64.58.64.94,1.06a1.34,1.34,0,0,1,.34,1.32c-.14.34-.31.54-.64.54s-.52-.15-.76,0c-.06,0-.19.07-.25,0l0-1.19a.17.17,0,0,1,.16-.09c.18.4.06.85.6.88.19,0,.34,0,.37-.29.06-1.07-1.34-.8-1.31-1.9a1.71,1.71,0,0,1,.18-.67c.25-.4.8-.15,1.16-.4.15-.06.15.16.19.25Z"/><path class="cls-5" d="M25,4.17c-.3.15-.62.39-.54.81a16.61,16.61,0,0,0,0,2.24l.48.42,0,.06a8.24,8.24,0,0,1-1.49,0c-.21-.24.27-.36.36-.54a12.64,12.64,0,0,0,.09-2.63c-.09-.27-.54-.15-.42-.45a6.19,6.19,0,0,1,1.49,0l.09.09Z"/><path class="cls-5" d="M10.53,4.74c-.3.36-.36-.33-.66-.36s-.45-.09-.59.06a2.2,2.2,0,0,0,0,1.11c.11.09.35,0,.5,0s.27-.44.51-.41-.06.39,0,.54c-.06.23.15.5-.12.59-.18-.09-.27-.42-.51-.42l-.41,0a3.17,3.17,0,0,0,0,1.53c.23.24.53,0,.8,0s.3-.63.63-.57a1.37,1.37,0,0,1,.06.78l-.18.12-2.12,0c-.09,0-.3,0-.21-.18.69-.42.3-1.23.39-1.88-.09-.48.27-1.2-.36-1.5,0-.18.18-.12.24-.18.54,0,1.25.21,1.67-.24.33.18.3.6.33.93Z"/><path class="cls-5" d="M7.27,4.26c-.6.48-.63,1.32-.9,2-.23.39-.11,1-.5,1.29-.15.06-.27-.09-.3-.21a19.91,19.91,0,0,0-.81-2.72c0-.27-.66-.33-.3-.54s.78.06,1.2,0c.09.27-.33.42-.21.75s.18,1,.51,1.37l.15-.15c0-.68.8-1.31.15-1.91.15-.27.59-.09.89-.18.06.06.27.12.12.27Z"/></svg>